<svg width="109" height="40" viewBox="0 0 109 40" fill="none" xmlns="http://www.w3.org/2000/svg">
<path d="M15.0842 17.816C15.0562 17.8999 15.0469 17.9839 15.0469 18.0678V21.4248C15.0469 21.7419 15.2147 22.0309 15.4758 22.1801L18.3386 23.8586C18.4785 23.9426 18.6277 23.9799 18.7862 23.9705V19.9701L15.0842 17.8067V17.816Z" fill="white"/>
<path d="M15.4758 24.8005C15.3639 24.7352 15.2707 24.6419 15.2054 24.5487C15.1028 24.6886 15.0469 24.8657 15.0469 25.0522V31.8968C15.0469 32.2139 15.2147 32.503 15.4758 32.6522L18.3386 34.3307C18.4785 34.4146 18.6277 34.4519 18.7862 34.4426V26.5909C18.637 26.5909 18.4785 26.5536 18.3386 26.479L15.4758 24.8005Z" fill="white"/>
<path d="M18.7862 23.9799C18.9261 23.9799 19.0753 23.9426 19.2059 23.868L22.0686 22.1894C22.3391 22.0309 22.4976 21.7418 22.4976 21.4341V18.0771C22.4976 17.9932 22.4883 17.9186 22.4603 17.844L18.7769 19.9887V23.9892L18.7862 23.9799Z" fill="#DCDBDB"/>
<path d="M19.2056 34.34L22.0684 32.6615C22.3389 32.503 22.4974 32.2139 22.4974 31.9062V25.0616C22.4974 24.8751 22.4414 24.6979 22.3389 24.558C22.2643 24.6606 22.171 24.7445 22.0684 24.8098L19.2056 26.4883C19.0751 26.5629 18.9352 26.6002 18.786 26.6002V34.4519C18.9259 34.4519 19.0751 34.4146 19.2056 34.34Z" fill="#DCDBDB"/>
<path d="M22.4688 17.8253C22.4128 17.6108 22.2729 17.4243 22.0678 17.3031L19.205 15.6246C19.0744 15.55 18.9346 15.5127 18.7854 15.5127C18.6362 15.5127 18.4776 15.55 18.3377 15.6246L15.475 17.3031C15.2791 17.415 15.1401 17.6015 15.0842 17.816L18.786 19.9794L22.4688 17.8346V17.8253Z" fill="#E2E2E2"/>
<path d="M17.0454 1.4165L17.0464 1.41592C17.99 0.861359 19.1561 0.861359 20.0997 1.41593L20.1012 1.41681L33.6553 9.3509C33.6555 9.35103 33.6558 9.35116 33.656 9.3513C34.6056 9.90971 35.2009 10.9476 35.2009 12.0595V27.9405C35.2009 29.0706 34.6111 30.1005 33.6642 30.6439L33.6642 30.6439L33.6568 30.6482L20.1012 38.5832L20.0997 38.5841C19.1561 39.1386 17.99 39.1386 17.0464 38.5841L17.0444 38.5829L3.49085 30.6601C3.4905 30.6599 3.49016 30.6597 3.48981 30.6595C2.54044 30.101 1.94531 29.0633 1.94531 27.9515V12.0705C1.94531 10.9404 2.53505 9.91053 3.48192 9.36711L3.48194 9.36714L3.48986 9.3625L17.0454 1.4165Z" stroke="url(#paint0_linear_490_26393)" stroke-width="2"/>
<path d="M53.3772 16.216C53.3772 12.744 56.1772 10.392 60.3492 10.392C64.2132 10.392 66.7052 12.548 66.9292 16.048H64.1572C64.0172 14.032 62.5892 12.856 60.3212 12.856C57.7732 12.856 56.1212 14.144 56.1212 16.132C56.1212 17.756 57.0452 18.736 58.9492 19.184L62.2812 19.968C65.5852 20.724 67.2652 22.516 67.2652 25.372C67.2652 29.012 64.4372 31.336 60.1252 31.336C56.0092 31.336 53.2652 29.18 53.0972 25.708H55.8972C55.9532 27.64 57.5772 28.872 60.1252 28.872C62.8132 28.872 64.5212 27.612 64.5212 25.596C64.5212 24 63.6532 22.992 61.7212 22.544L58.3892 21.788C55.0852 21.032 53.3772 19.128 53.3772 16.216ZM72.8973 30.972H70.2653V10.392H72.8973V19.408C73.7653 17.924 75.4173 16.916 77.5453 16.916C81.0453 16.916 82.7253 19.128 82.7253 22.628V31H80.0933V23.216C80.0933 20.444 78.7773 19.324 76.8173 19.324C74.2693 19.324 72.8973 21.172 72.8973 23.524V30.972ZM87.6588 14.06C86.7068 14.06 85.9228 13.276 85.9228 12.324C85.9228 11.344 86.7068 10.588 87.6588 10.588C88.6108 10.588 89.3948 11.344 89.3948 12.324C89.3948 13.276 88.6108 14.06 87.6588 14.06ZM86.3708 31V17.308H89.0028V31H86.3708ZM92.8239 37.132V17.308H95.2039L95.3999 19.772C96.3239 17.896 98.1719 16.916 100.356 16.916C104.276 16.916 106.712 19.856 106.712 24.056C106.712 28.228 104.416 31.364 100.356 31.364C98.1719 31.364 96.3519 30.44 95.4559 28.76V37.132H92.8239ZM95.4839 24.168C95.4839 26.968 97.1079 28.984 99.7959 28.984C102.484 28.984 104.08 26.968 104.08 24.168C104.08 21.34 102.484 19.324 99.7959 19.324C97.1079 19.324 95.4839 21.312 95.4839 24.168Z" fill="white"/>
<defs>
<linearGradient id="paint0_linear_490_26393" x1="18.5731" y1="0" x2="18.5731" y2="40" gradientUnits="userSpaceOnUse">
<stop stop-color="#29FFF2"/>
<stop offset="1" stop-color="#E86025"/>
</linearGradient>
</defs>
</svg>
