<svg width="37" height="40" viewBox="0 0 37 40" fill="none" xmlns="http://www.w3.org/2000/svg">
<path d="M15.0842 17.816C15.0562 17.8999 15.0469 17.9839 15.0469 18.0678V21.4248C15.0469 21.7419 15.2147 22.0309 15.4758 22.1801L18.3386 23.8586C18.4785 23.9426 18.6277 23.9799 18.7862 23.9705V19.9701L15.0842 17.8067V17.816Z" fill="white"/>
<path d="M15.4758 24.8005C15.3639 24.7352 15.2707 24.6419 15.2054 24.5487C15.1028 24.6886 15.0469 24.8657 15.0469 25.0522V31.8968C15.0469 32.2139 15.2147 32.503 15.4758 32.6522L18.3386 34.3307C18.4785 34.4146 18.6277 34.4519 18.7862 34.4426V26.5909C18.637 26.5909 18.4785 26.5536 18.3386 26.479L15.4758 24.8005Z" fill="white"/>
<path d="M18.7862 23.9799C18.9261 23.9799 19.0753 23.9426 19.2059 23.868L22.0686 22.1894C22.3391 22.0309 22.4976 21.7418 22.4976 21.4341V18.0771C22.4976 17.9932 22.4883 17.9186 22.4603 17.844L18.7769 19.9887V23.9892L18.7862 23.9799Z" fill="#DCDBDB"/>
<path d="M19.2056 34.34L22.0684 32.6615C22.3389 32.503 22.4974 32.2139 22.4974 31.9062V25.0616C22.4974 24.8751 22.4414 24.6979 22.3389 24.558C22.2643 24.6606 22.171 24.7445 22.0684 24.8098L19.2056 26.4883C19.0751 26.5629 18.9352 26.6002 18.786 26.6002V34.4519C18.9259 34.4519 19.0751 34.4146 19.2056 34.34Z" fill="#DCDBDB"/>
<path d="M22.4688 17.8253C22.4128 17.6108 22.2729 17.4243 22.0678 17.3031L19.205 15.6246C19.0744 15.55 18.9346 15.5127 18.7854 15.5127C18.6362 15.5127 18.4776 15.55 18.3377 15.6246L15.475 17.3031C15.2791 17.415 15.1401 17.6015 15.0842 17.816L18.786 19.9794L22.4688 17.8346V17.8253Z" fill="#E2E2E2"/>
<path d="M17.0454 1.4165L17.0464 1.41592C17.99 0.861359 19.1561 0.861359 20.0997 1.41593L20.1012 1.41681L33.6553 9.3509C33.6555 9.35103 33.6558 9.35116 33.656 9.3513C34.6056 9.90971 35.2009 10.9476 35.2009 12.0595V27.9405C35.2009 29.0706 34.6111 30.1005 33.6642 30.6439L33.6642 30.6439L33.6568 30.6482L20.1012 38.5832L20.0997 38.5841C19.1561 39.1386 17.99 39.1386 17.0464 38.5841L17.0444 38.5829L3.49085 30.6601C3.4905 30.6599 3.49016 30.6597 3.48981 30.6595C2.54044 30.101 1.94531 29.0633 1.94531 27.9515V12.0705C1.94531 10.9404 2.53505 9.91053 3.48192 9.36711L3.48194 9.36714L3.48986 9.3625L17.0454 1.4165Z" stroke="url(#paint0_linear_490_26394)" stroke-width="2"/>
<defs>
<linearGradient id="paint0_linear_490_26394" x1="18.5731" y1="0" x2="18.5731" y2="40" gradientUnits="userSpaceOnUse">
<stop stop-color="#29FFF2"/>
<stop offset="1" stop-color="#E86025"/>
</linearGradient>
</defs>
</svg>
